<svg class="svg-icon" style="width: 1em;height: 1em;vertical-align: middle;fill: currentColor;overflow: hidden;" viewBox="0 0 1024 1024" version="1.1" xmlns="http://www.w3.org/2000/svg"><path d="M512 0C229.184 0 0 229.184 0 512s229.184 512 512 512 512-229.216 512-512S794.784 0 512 0z m251.616 351.008l-84 395.808c-5.792 28.192-22.784 34.784-46.4 21.792l-128-94.592-61.408 59.808c-7.2 7.008-12.8 12.8-25.6 12.8-16.608 0-13.792-6.208-19.392-22.016L355.2 581.408l-126.592-39.392c-27.392-8.384-27.584-27.2 6.208-40.608l493.184-190.4c22.4-10.208 44.192 5.408 35.616 40z"  /></svg>